<svg width="225" height="159" viewBox="0 0 225 159" fill="none" xmlns="http://www.w3.org/2000/svg">
<rect width="225" height="159" rx="31" fill="black"/>
<path d="M60.8765 53.2442C71.8763 50.2442 100.21 101.744 112.376 125.244C112.376 125.244 152.376 49.7442 163.876 53.2442C175.376 56.7442 172.876 66.7442 163.376 71.2442C175.876 66.2442 193.376 54.2442 166.376 35.2442C159.376 30.7442 146.431 26.8442 141.376 53.2442C110.376 42.2442 83.3765 53.2442 83.3765 53.2442C77.8765 31.2442 71.8765 28.7442 59.3763 35.2442C32.3763 51.7442 46.2098 64.7442 60.8765 71.2442C55.3765 68.8067 46.3329 57.2107 60.8765 53.2442Z" fill="url(#paint0_linear_174_5)"/>
<defs>
<linearGradient id="paint0_linear_174_5" x1="112.299" y1="32" x2="112" y2="181.5" gradientUnits="userSpaceOnUse">
<stop stop-color="white"/>
<stop offset="1" stop-color="#999999"/>
</linearGradient>
</defs>
</svg>
